<svg width="16" height="16" viewBox="0 0 16 16" xmlns="http://www.w3.org/2000/svg">
  <path fill="#F05133" d="M15.698 7.287L8.712.301a1.03 1.03 0 0 0-1.457 0L5.82 1.737l1.84 1.84c.428-.144.917-.047 1.258.293a1.22 1.22 0 0 1 .293 1.258l1.772 1.772c.428-.144.93-.048 1.27.292.402.402.402 1.054 0 1.456-.4.402-1.053.402-1.455 0a1.1 1.1 0 0 1-.246-.358H8.574v4.792c.098.05.19.115.267.193.402.402.402 1.054 0 1.456-.402.402-1.053.402-1.455 0-.402-.402-.402-1.055 0-1.456.1-.1.217-.175.34-.224V7.29a1.092 1.092 0 0 1-.34-.224 1.098 1.098 0 0 1-.24-.354L5.249 4.917v4.592c.247.123.465.303.634.471.403.402.403 1.054 0 1.456-.402.402-1.054.402-1.456 0-.402-.402-.402-1.055 0-1.456.1-.1.217-.176.34-.224V4.59a1.096 1.096 0 0 1-.34-.223c-.346-.347-.421-.849-.225-1.265L2.429 1.329.302 3.455a1.031 1.031 0 0 0 0 1.458l6.986 6.986a1.032 1.032 0 0 0 1.457 0l6.953-6.953a1.031 1.031 0 0 0 0-1.457"></path>
  <path fill="#3C3C3C" fill-opacity="0.5" d="M15.698 7.287L8.712.301a1.03 1.03 0 0 0-1.457 0L5.82 1.737l1.84 1.84c.428-.144.917-.047 1.258.293a1.22 1.22 0 0 1 .293 1.258l1.772 1.772c.428-.144.93-.048 1.27.292.402.402.402 1.054 0 1.456-.4.402-1.053.402-1.455 0a1.1 1.1 0 0 1-.246-.358H8.574v4.792c.098.05.19.115.267.193.402.402.402 1.054 0 1.456-.402.402-1.053.402-1.455 0-.402-.402-.402-1.055 0-1.456.1-.1.217-.175.34-.224V7.29a1.092 1.092 0 0 1-.34-.224 1.098 1.098 0 0 1-.24-.354L5.249 4.917v4.592c.247.123.465.303.634.471.403.402.403 1.054 0 1.456-.402.402-1.054.402-1.456 0-.402-.402-.402-1.055 0-1.456.1-.1.217-.176.34-.224V4.59a1.096 1.096 0 0 1-.34-.223c-.346-.347-.421-.849-.225-1.265L2.429 1.329.302 3.455a1.031 1.031 0 0 0 0 1.458l6.986 6.986a1.032 1.032 0 0 0 1.457 0l6.953-6.953a1.031 1.031 0 0 0 0-1.457"></path>
</svg>